<svg width="64px" height="64px" viewBox="0 0 512.000000 512.000000"
    xmlns="http://www.w3.org/2000/svg">
    <g transform="translate(0.000000,512.000000) scale(0.100000,-0.100000)" fill="#fee3ec" stroke="none">
        <path d="M0 3090 c0 -1117 2 -2030 4 -2030 2 0 14 29 26 65 l22 65 42 58 c67
          91 124 126 314 197 l102 38 0 48 0 48 -37 6 c-72 12 -133 37 -194 77 l-60 40
          -39 52 c-53 70 -79 135 -92 228 l-10 79 4 317 5 317 22 70 c49 150 130 267
          251 360 76 59 179 109 276 136 l79 22 95 0 95 -1 64 -17 c36 -9 87 -28 115
          -42 28 -15 92 -41 143 -58 l91 -32 71 -47 c38 -26 96 -75 126 -109 l57 -62 44
          -90 44 -90 15 -70 15 -70 0 -310 0 -311 -15 -59 c-21 -79 -68 -156 -133 -215
          -65 -60 -139 -96 -232 -112 l-71 -12 3 -45 3 -46 155 -55 c85 -30 173 -68 195
          -83 42 -29 69 -34 81 -16 3 6 32 28 64 48 l58 38 176 64 176 64 0 141 0 140
          -54 47 c-109 94 -195 236 -237 392 l-22 80 -4 235 -5 235 16 75 c9 41 32 109
          52 150 l37 75 86 86 86 85 80 41 c91 47 170 70 270 79 l70 6 74 -16 c41 -8
          104 -30 140 -47 36 -17 93 -39 126 -50 33 -10 89 -35 124 -56 l63 -38 68 -72
          69 -72 35 -73 35 -73 17 -84 16 -84 -5 -201 -5 -201 -21 -80 c-28 -104 -88
          -224 -154 -304 -28 -36 -82 -88 -119 -115 l-68 -51 0 -125 0 -125 178 -60
          c197 -67 272 -99 318 -138 18 -15 39 -27 47 -27 8 0 25 8 38 19 36 27 112 63
          227 106 l102 38 0 48 0 48 -37 6 c-70 12 -131 36 -190 74 -98 64 -163 159
          -188 278 l-15 68 1 310 0 310 14 80 14 80 47 94 47 95 81 81 81 82 70 41 c86
          50 201 89 300 102 l75 10 72 -10 c95 -12 140 -26 212 -62 33 -17 83 -37 110
          -45 129 -39 267 -133 345 -235 22 -29 56 -87 75 -128 l36 -76 15 -78 15 -78 0
          -294 0 -295 -16 -69 -15 -69 -38 -58 c-21 -32 -57 -75 -81 -97 -56 -50 -152
          -94 -234 -108 l-66 -11 0 -46 0 -46 147 -50 147 -50 56 -36 c31 -20 73 -55 93
          -80 41 -48 97 -152 97 -181 0 -10 5 -18 10 -18 l10 0 0 2025 0 2025 -1175 0
          -1175 0 0 -9 c0 -5 5 -11 11 -13 5 -2 25 -61 42 -131 l32 -128 60 -26 c33 -13
          70 -27 82 -30 l22 -5 110 67 111 66 18 -5 c25 -8 302 -289 302 -307 0 -8 -29
          -63 -65 -121 -36 -59 -65 -112 -65 -117 0 -9 49 -138 56 -150 2 -1 60 -17 131
          -35 l128 -32 12 -25 13 -24 0 -180 0 -180 -13 -24 -12 -25 -128 -32 c-71 -18
          -129 -34 -130 -35 -9 -15 -50 -118 -54 -136 l-5 -22 67 -110 66 -111 -6 -19
          c-3 -10 -39 -50 -79 -90 l-74 -71 -26 0 -25 0 -11 19 c-5 11 -10 25 -10 31 0
          6 25 37 55 69 30 32 55 63 55 69 0 6 -28 56 -62 112 l-62 101 11 27 c7 15 28
          68 49 117 20 50 38 92 41 94 2 3 59 19 126 36 l122 32 0 148 0 149 -75 18
          c-41 10 -98 25 -127 33 l-51 15 -18 53 c-9 28 -30 78 -45 109 -16 32 -29 63
          -29 69 0 7 27 56 60 110 33 53 60 104 60 112 0 16 -183 200 -204 205 -8 2 -60
          -25 -116 -59 l-103 -62 -26 11 c-14 6 -69 28 -121 50 l-95 39 -26 99 c-14 54
          -29 111 -33 127 l-6 27 -149 0 -149 0 -27 -112 c-15 -62 -31 -120 -36 -129 -4
          -9 -36 -26 -71 -39 -35 -12 -84 -33 -110 -46 -26 -13 -51 -24 -56 -24 -4 0
          -54 27 -111 61 -56 33 -108 59 -116 57 -19 -4 -205 -188 -205 -202 0 -7 27
          -56 60 -109 33 -54 60 -104 60 -111 0 -7 -15 -47 -34 -87 -19 -41 -37 -86 -41
          -101 -4 -15 -14 -33 -23 -41 -10 -8 -70 -27 -134 -43 l-118 -28 0 -148 0 -148
          28 -6 c15 -4 72 -19 126 -33 l99 -26 39 -95 c22 -52 44 -107 50 -121 l11 -26
          -61 -100 c-34 -55 -62 -107 -62 -115 0 -7 18 -32 41 -53 22 -22 45 -48 51 -58
          l9 -18 -16 -25 -15 -24 -21 0 -21 0 -69 67 c-38 37 -72 76 -75 88 l-5 21 66
          108 67 109 -5 21 c-3 12 -17 48 -30 81 l-26 60 -127 31 c-69 18 -131 37 -138
          44 l-11 11 -3 195 -3 196 15 23 15 22 128 32 128 32 29 74 28 74 -6 18 c-4 10
          -34 62 -67 116 l-60 97 5 18 c9 27 290 302 308 302 9 0 66 -30 127 -66 l111
          -66 17 5 c10 3 45 17 78 31 l60 25 32 122 c17 67 37 127 42 132 6 6 11 15 11
          19 0 4 -529 8 -1175 8 l-1175 0 0 -2030z m2663 1265 c117 -30 216 -100 277
          -195 18 -27 41 -77 51 -111 l19 -61 0 -74 0 -75 -21 -61 c-41 -121 -129 -221
          -243 -274 -27 -12 -80 -28 -118 -35 l-68 -12 -68 12 c-38 7 -91 23 -118 35
          -114 53 -202 153 -243 274 l-21 61 0 75 0 74 19 61 c47 150 166 263 324 306
          69 18 140 18 210 0z"></path>
        <path d="M2443 4252 c-71 -25 -127 -66 -166 -121 -42 -59 -57 -93 -67 -158
          l-9 -53 10 -61 c5 -34 20 -82 33 -108 30 -59 112 -136 173 -162 27 -11 78 -23
          114 -26 l67 -6 70 22 71 21 56 52 c31 28 67 72 80 98 13 26 29 75 34 109 l10
          61 -9 54 c-12 73 -45 139 -97 192 l-44 45 -57 27 -57 26 -80 3 -80 4 -52 -19z"></path>
        <path d="M2385 3300 c-119 -24 -242 -94 -321 -184 -59 -66 -97 -136 -119 -221
          l-15 -59 0 -93 0 -93 11 0 c6 0 30 16 52 36 22 20 69 50 106 68 l66 31 141 1
          142 0 66 33 65 32 62 75 63 75 25 -3 26 -3 46 -86 c58 -111 104 -173 182 -245
          71 -67 167 -134 192 -134 l17 0 -5 153 -4 152 -22 59 c-11 32 -31 74 -43 95
          -61 99 -174 187 -284 221 -34 10 -85 30 -113 45 -96 48 -230 66 -336 45z"></path>
        <path d="M4025 3183 c-60 -8 -141 -36 -208 -70 l-68 -36 -63 -68 -63 -69 -37
          -73 c-46 -95 -76 -209 -83 -324 l-6 -93 32 0 c18 0 72 9 119 21 l87 20 110 54
          c61 29 140 76 176 103 37 28 102 89 145 136 l78 86 21 0 20 0 80 -92 c118
          -137 516 -538 533 -538 l14 0 -4 208 -5 207 -21 58 c-33 91 -78 161 -143 226
          l-60 59 -67 35 c-37 20 -89 41 -117 48 -27 7 -61 20 -75 29 -85 60 -258 91
          -395 73z"></path>
        <path d="M618 3157 c-100 -31 -178 -78 -254 -154 l-61 -61 -41 -84 c-50 -100
          -70 -181 -79 -310 l-6 -98 35 0 c45 0 176 33 258 66 36 14 101 47 145 72 l80
          47 118 118 117 117 18 0 18 0 84 -97 c120 -138 510 -533 526 -533 l14 0 0 183
          0 182 -15 64 c-9 35 -32 95 -52 134 l-37 70 -60 61 -61 61 -70 37 c-38 20 -92
          42 -120 49 -27 7 -60 20 -73 30 -13 10 -49 28 -80 40 l-57 22 -135 4 -135 3
          -77 -23z"></path>
        <path d="M2669 2814 c-38 -41 -106 -84 -166 -106 l-55 -19 -142 -2 -141 -2
          -52 -29 c-29 -16 -61 -38 -72 -50 -11 -12 -41 -57 -65 -100 l-45 -79 5 -46
          c10 -78 34 -163 65 -228 36 -76 108 -167 175 -223 67 -56 174 -107 264 -126
          l75 -16 80 5 c154 11 285 71 397 183 103 101 175 250 185 379 l4 60 -79 43
          c-126 69 -260 197 -339 325 l-36 57 -17 0 c-9 0 -27 -12 -41 -26z"></path>
        <path d="M861 2664 c-79 -80 -220 -179 -305 -214 l-52 -22 -13 -47 c-7 -25
          -15 -75 -18 -111 l-6 -66 13 -73 12 -73 39 -78 39 -78 59 -54 c68 -63 130 -95
          213 -110 l58 -10 62 11 c34 6 86 23 116 38 l53 27 59 62 c32 34 70 88 85 119
          45 97 65 228 49 327 l-7 38 -149 157 c-83 87 -164 175 -181 196 -17 20 -35 37
          -41 36 -6 0 -44 -34 -85 -75z"></path>
        <path d="M4195 2677 c-82 -85 -183 -159 -287 -210 l-86 -42 -14 -50 -13 -50 1
          -105 1 -105 22 -65 c41 -119 128 -225 225 -274 28 -14 80 -31 114 -37 l62 -11
          58 10 c83 15 145 47 213 110 l59 54 39 78 39 78 12 73 13 73 -6 69 -6 69 -108
          114 c-59 64 -141 152 -182 197 -41 45 -79 83 -85 84 -6 1 -38 -26 -71 -60z"></path>
        <path d="M290 2364 c-36 -8 -76 -16 -88 -19 l-24 -6 4 -197 5 -197 17 -48 18
          -48 50 -54 49 -54 52 -25 c29 -13 71 -28 95 -31 l42 -7 0 76 0 76 -35 53 c-44
          66 -79 162 -95 256 l-12 74 6 61 c4 33 10 71 13 84 l5 22 -18 -1 c-11 -1 -48
          -7 -84 -15z"></path>
        <path d="M3590 2361 l-85 -17 -3 -173 -2 -174 15 -61 c26 -101 87 -176 180
          -221 28 -13 69 -27 93 -30 l42 -7 0 76 0 75 -40 62 c-22 35 -52 99 -67 143
          l-27 81 1 133 0 132 -11 -1 c-6 -1 -49 -9 -96 -18z"></path>
        <path d="M1424 2163 c-8 -68 -38 -172 -65 -225 -10 -20 -41 -66 -69 -103 l-50
          -66 0 -46 0 -46 52 6 53 7 62 30 62 31 35 41 c19 22 45 61 57 87 l22 46 5 85
          4 85 -70 63 c-39 34 -75 62 -81 62 -5 0 -13 -26 -17 -57z"></path>
        <path d="M4745 2173 c-19 -139 -58 -237 -133 -335 l-52 -67 0 -47 0 -47 51 6
          c62 8 143 44 190 85 20 17 51 59 69 93 l33 62 4 86 5 86 -71 63 c-38 34 -74
          62 -80 62 -5 0 -13 -21 -16 -47z"></path>
        <path d="M2250 1641 l0 -121 150 -225 c83 -124 156 -225 164 -225 l13 0 122
          228 121 229 0 108 0 107 -17 -5 c-74 -23 -131 -36 -190 -41 l-68 -7 -73 10
          c-40 6 -99 20 -130 31 -31 12 -65 23 -74 27 l-18 5 0 -121z"></path>
        <path d="M610 1595 l0 -125 138 -190 137 -189 15 0 15 0 113 173 112 173 0
          128 0 127 -17 -5 c-10 -3 -44 -15 -75 -26 l-58 -21 -84 0 -84 0 -63 20 c-35
          11 -79 29 -97 40 -18 11 -37 20 -42 20 l-10 0 0 -125z"></path>
        <path d="M3930 1594 l0 -126 138 -189 137 -188 15 0 15 0 113 173 112 174 0
          126 c0 69 -2 126 -5 126 -2 0 -38 -11 -79 -25 l-75 -25 -79 0 -80 0 -63 20
          c-35 11 -79 29 -97 40 -18 11 -37 20 -42 20 l-10 0 0 -126z"></path>
        <path d="M1988 1385 c-92 -35 -187 -77 -212 -94 -57 -40 -109 -106 -138 -179
          l-23 -57 -3 -477 -3 -478 205 0 206 0 0 273 0 273 12 12 c7 7 22 12 34 12 l23
          0 15 -22 16 -22 0 -263 0 -263 440 0 440 0 0 263 0 263 16 22 15 22 23 0 c12
          0 27 -5 34 -12 l12 -12 0 -273 0 -273 205 0 205 0 0 433 0 432 -10 58 c-19
          120 -92 228 -187 279 -53 28 -420 155 -426 148 -2 -3 -65 -121 -140 -262
          l-137 -257 0 -115 0 -116 -20 -20 c-11 -11 -24 -20 -30 -20 -5 0 -19 9 -30 20
          l-20 20 0 130 0 130 -162 245 -163 244 -15 0 c-8 -1 -90 -29 -182 -64z m603
          -835 c13 0 37 -53 31 -70 -16 -48 -74 -66 -105 -32 -19 22 -23 41 -13 70 8 25
          42 44 64 36 8 -2 18 -4 23 -4z"></path>
        <path d="M392 1336 l-133 -53 -49 -48 -49 -48 -28 -61 -28 -61 -3 -367 -4
          -368 711 0 710 0 3 383 3 382 29 64 30 63 -11 17 c-5 9 -25 25 -43 35 -44 26
          -267 106 -294 106 l-21 0 -132 -203 -133 -204 0 -159 0 -160 -12 -12 c-7 -7
          -22 -12 -34 -12 l-23 0 -15 22 -16 22 0 156 -1 155 -147 200 c-81 110 -154
          201 -162 202 -8 2 -75 -21 -148 -51z"></path>
        <path d="M3712 1336 l-134 -53 -26 -26 -25 -26 34 -73 34 -73 3 -377 3 -378
          709 0 710 0 0 323 c0 177 -4 348 -10 381 -5 32 -19 79 -31 104 -27 55 -84 114
          -138 142 -57 28 -260 100 -285 100 l-21 0 -132 -202 -133 -203 0 -153 0 -153
          -10 -20 -11 -19 -24 0 -24 0 -15 22 -16 22 0 156 -1 155 -148 200 c-82 110
          -154 201 -162 202 -8 2 -74 -21 -147 -51z"></path>
        <path d="M5100 255 l-12 -15 -744 0 -744 0 0 -104 0 -105 -10 -6 c-5 -3 -10
          -10 -10 -16 l0 -9 770 0 770 0 0 135 c0 74 -2 135 -4 135 -2 0 -9 -7 -16 -15z"></path>
        <path d="M0 130 l0 -130 770 0 770 0 0 9 c0 6 -4 13 -10 16 l-10 6 0 105 0
          104 -744 0 -745 0 -6 10 c-3 6 -10 10 -16 10 l-9 0 0 -130z"></path>
    </g>
    <g transform="translate(0.000000,512.000000) scale(0.100000,-0.100000)" fill="#f7afc5" stroke="#f7afc5" stroke-width="2">
        <path d="M2326 5098 c-7 -13 -26 -74 -41 -136 l-28 -114 -16 -5 c-9 -3 -40
          -16 -70 -29 l-55 -25 -109 66 -109 65 -26 0 -26 0 -148 -148 -148 -148 0 -22
          c0 -13 29 -71 65 -130 l66 -108 -28 -71 -28 -72 -128 -32 -128 -32 -15 -22
          -15 -23 3 -207 3 -207 16 -12 c9 -6 72 -25 139 -41 l122 -29 5 -16 c3 -8 17
          -40 30 -71 l25 -56 -66 -108 -66 -107 0 -26 0 -26 73 -73 73 -73 32 0 31 0 15
          22 c9 12 16 31 16 41 0 10 -23 43 -51 72 l-51 54 62 101 62 101 -5 27 c-3 15
          -21 65 -42 112 -20 47 -40 94 -45 106 l-8 21 -89 22 c-48 12 -105 26 -125 32
          l-38 10 0 137 0 138 118 28 c64 16 124 35 134 43 9 8 19 26 23 41 4 15 22 60
          41 101 19 40 34 84 34 97 0 13 -28 68 -62 123 -34 56 -59 102 -57 104 3 1 48
          44 101 96 l95 93 104 -61 c56 -34 111 -61 121 -61 10 0 40 11 66 24 26 13 75
          34 110 46 35 13 67 30 71 39 5 9 21 67 36 129 l27 112 139 0 138 0 10 -37 c6
          -21 20 -78 32 -126 l22 -89 21 -8 c12 -5 59 -25 106 -45 47 -21 97 -39 112
          -42 l27 -5 102 62 102 61 97 -93 c54 -51 98 -97 99 -101 0 -5 -26 -53 -59
          -106 -33 -54 -60 -108 -60 -120 0 -12 13 -47 29 -79 15 -31 36 -81 45 -109
          l18 -53 51 -15 c29 -8 86 -23 127 -33 l75 -18 0 -139 0 -139 -75 -18 c-41 -10
          -98 -25 -126 -33 l-51 -15 -23 -62 c-12 -35 -33 -84 -46 -110 -13 -26 -24 -58
          -24 -71 0 -12 27 -67 60 -121 l61 -98 -56 -58 -55 -59 0 -21 c0 -12 5 -30 10
          -41 l11 -19 36 0 37 0 78 78 78 78 0 23 c0 13 -30 72 -66 133 l-66 109 26 58
          c14 32 26 63 26 70 0 6 12 14 28 18 15 3 74 18 132 33 l105 26 12 25 13 24 0
          190 0 190 -13 24 -12 25 -128 32 c-71 18 -129 34 -131 35 -1 2 -14 35 -29 72
          l-27 68 65 106 65 107 0 25 0 25 -148 148 -148 148 -23 0 c-13 0 -72 -30 -133
          -66 l-109 -66 -57 25 c-31 13 -64 27 -72 30 l-16 5 -29 122 c-16 68 -36 129
          -43 137 l-13 13 -219 0 -220 0 -14 -22z"></path>
        <path d="M2443 4365 c-114 -31 -213 -102 -273 -195 -18 -27 -41 -77 -51 -111
          l-19 -61 0 -84 0 -85 21 -61 c41 -122 129 -221 244 -274 28 -13 83 -29 123
          -36 l72 -12 72 12 c40 7 95 23 123 36 115 53 203 152 244 274 l21 61 0 85 0
          84 -19 61 c-47 152 -167 264 -328 306 -70 18 -161 18 -230 0z m260 -138 l56
          -26 44 -45 c51 -52 86 -119 96 -188 l8 -48 -9 -56 c-5 -31 -19 -77 -33 -103
          l-24 -48 -56 -51 -56 -52 -71 -21 -70 -22 -58 6 c-78 9 -141 38 -201 94 -60
          56 -95 120 -107 197 l-9 56 8 48 c9 59 24 95 66 153 39 55 95 96 166 121 l52
          19 71 -4 70 -4 57 -26z"></path>
        <path d="M2405 3413 c-72 -10 -156 -38 -230 -76 l-80 -41 -86 -85 -86 -86 -37
          -75 c-20 -41 -43 -109 -52 -150 l-16 -75 5 -245 4 -245 22 -80 c42 -156 128
          -298 237 -392 l54 -47 0 -130 0 -131 -163 -59 c-188 -68 -217 -82 -281 -131
          l-48 -36 -41 27 c-23 16 -112 53 -197 84 l-155 55 -3 36 -3 35 71 12 c93 16
          167 52 232 112 65 59 112 136 133 215 l15 59 0 321 0 320 -15 70 -15 70 -44
          90 -44 90 -57 62 c-30 34 -88 83 -126 109 l-71 47 -91 32 c-51 17 -115 43
          -143 58 -28 14 -79 33 -115 43 l-64 17 -105 0 -105 0 -79 -22 c-98 -27 -200
          -77 -276 -136 -121 -93 -202 -210 -251 -360 l-22 -70 -5 -327 -4 -328 11 -78
          c12 -93 38 -158 91 -228 l39 -52 60 -40 c61 -40 122 -65 193 -77 l38 -6 0 -38
          0 -38 -102 -38 c-187 -70 -249 -108 -314 -196 -21 -28 -48 -80 -61 -116 l-23
          -64 0 -412 0 -413 12 -12 12 -12 743 0 743 0 0 -103 0 -103 12 -12 12 -12
          1026 0 1026 0 12 12 12 12 0 103 0 103 744 0 744 0 11 14 12 14 -3 424 -3 423
          -32 65 c-41 84 -93 144 -163 189 l-56 36 -147 50 -147 50 0 36 0 36 66 11 c82
          14 178 58 234 108 24 22 60 65 81 97 l38 58 15 69 16 69 0 305 0 304 -15 78
          -15 78 -36 76 c-19 41 -53 99 -75 128 -78 102 -216 196 -345 235 -27 8 -77 28
          -110 45 -111 56 -248 79 -377 62 -101 -13 -215 -51 -302 -102 l-70 -41 -81
          -82 -81 -81 -47 -95 -47 -94 -14 -80 -14 -80 0 -320 -1 -320 15 -68 c25 -119
          90 -214 188 -278 59 -38 120 -62 190 -74 l37 -6 0 -38 0 -38 -102 -38 c-115
          -43 -188 -77 -229 -108 l-28 -20 -33 28 c-48 41 -121 73 -320 140 l-178 60 0
          115 0 115 68 51 c37 27 91 79 119 115 66 80 126 199 154 304 l21 80 5 211 5
          211 -16 84 -17 84 -35 73 -35 73 -69 72 -68 72 -63 38 c-35 21 -91 46 -124 56
          -33 11 -90 33 -126 50 -106 50 -230 70 -344 54z m193 -128 c34 -8 85 -26 113
          -40 28 -15 79 -35 113 -45 110 -34 223 -122 284 -221 12 -21 32 -63 43 -95
          l21 -59 5 -142 c3 -79 2 -143 -2 -143 -16 0 -124 79 -182 134 -78 72 -124 134
          -182 245 l-46 86 -36 3 -35 3 -63 -75 -62 -75 -64 -32 -65 -32 -142 -1 -143
          -1 -66 -31 c-37 -18 -85 -49 -108 -69 l-41 -37 0 84 0 84 15 59 c9 33 27 83
          42 112 55 110 177 217 302 264 109 41 197 48 299 24z m1634 -119 c77 -15 137
          -37 178 -66 14 -9 48 -22 75 -29 28 -7 80 -28 117 -48 l67 -35 60 -59 c65 -65
          110 -135 143 -226 l21 -58 4 -200 5 -200 -181 180 c-100 99 -237 242 -304 317
          l-122 137 -30 1 -31 0 -78 -86 c-43 -47 -108 -108 -145 -136 -36 -27 -115 -74
          -176 -103 l-110 -54 -87 -20 c-47 -12 -97 -21 -109 -21 l-22 0 6 83 c8 108 39
          224 83 314 l37 73 63 69 63 68 68 36 c136 71 262 91 405 63z m-3220 -25 c31
          -12 67 -30 80 -40 13 -10 46 -23 73 -30 28 -7 82 -29 120 -49 l70 -37 61 -61
          60 -61 37 -70 c20 -39 43 -99 52 -134 l15 -64 0 -175 0 -175 -175 175 c-97 96
          -233 239 -303 317 l-127 143 -27 0 -28 0 -117 -117 -118 -118 -80 -47 c-44
          -25 -109 -58 -145 -72 -75 -30 -211 -66 -248 -66 l-25 0 7 88 c9 121 30 203
          78 300 l41 84 61 61 c76 76 154 123 254 154 l77 23 125 -3 125 -4 57 -22z
          m1741 -368 c79 -128 213 -256 339 -325 l79 -43 -4 -50 c-3 -27 -15 -79 -27
          -115 -63 -191 -226 -354 -409 -411 -36 -11 -97 -22 -136 -25 l-70 -6 -75 16
          c-90 19 -197 70 -264 126 -67 56 -139 147 -175 223 -33 70 -59 162 -62 223
          l-3 40 37 67 c21 36 48 79 61 94 14 16 48 42 78 58 l53 30 140 1 140 2 57 20
          c61 21 128 64 167 106 14 14 28 26 31 26 4 0 23 -26 43 -57z m-1572 -300 l126
          -132 7 -38 c9 -59 7 -112 -8 -185 -21 -96 -60 -171 -126 -242 l-59 -62 -53
          -27 c-29 -15 -79 -32 -111 -37 l-57 -11 -54 10 c-78 14 -141 47 -207 109 l-59
          54 -39 78 -39 78 -12 73 -12 73 5 57 c4 31 12 77 19 102 l12 45 52 22 c84 34
          226 133 305 213 l74 74 55 -61 c30 -34 112 -120 181 -193z m3316 2 l132 -140
          7 -55 7 -55 -12 -75 -11 -75 -40 -81 -40 -82 -59 -54 c-66 -62 -128 -95 -207
          -109 l-54 -10 -57 11 c-151 27 -278 145 -334 310 l-22 65 -1 95 -1 95 13 50
          14 50 86 42 c102 50 203 124 287 209 l60 60 50 -55 c27 -31 109 -119 182 -196z
          m-4131 -177 l-9 -72 12 -84 c14 -100 49 -198 96 -269 l35 -53 0 -65 0 -64 -32
          5 c-18 3 -56 17 -85 30 l-52 25 -49 54 -50 54 -18 48 -17 48 -5 187 -4 187 24
          6 c21 5 146 32 159 34 3 1 1 -31 -5 -71z m3320 -60 l1 -133 26 -81 c15 -44 45
          -108 67 -143 l40 -62 0 -64 0 -64 -32 5 c-49 9 -129 49 -166 85 -50 47 -80 98
          -97 165 l-16 61 3 164 3 163 85 17 c47 9 85 17 85 18 0 0 1 -59 1 -131z
          m-2109 -228 l-4 -75 -22 -46 c-12 -26 -38 -65 -57 -87 l-35 -41 -62 -30 c-34
          -17 -81 -33 -104 -37 l-43 -7 0 36 0 36 50 66 c28 37 59 83 69 103 27 53 57
          157 65 224 l7 58 71 -63 70 -62 -5 -75z m3320 -2 l-5 -76 -33 -62 c-18 -33
          -48 -75 -68 -92 -43 -38 -121 -75 -178 -84 l-43 -7 0 37 0 37 52 67 c75 98
          114 196 133 335 l6 47 70 -62 71 -63 -5 -77z m-2522 -302 c33 -8 92 -18 130
          -21 l70 -7 77 11 c42 6 95 17 117 25 l41 14 0 -96 0 -95 -112 -211 c-61 -116
          -117 -219 -124 -230 l-12 -18 -151 226 -151 226 0 110 0 111 28 -15 c15 -8 55
          -21 87 -30z m-1625 -57 l65 -20 91 0 91 0 49 17 c27 9 57 20 67 25 l17 10 0
          -117 0 -117 -112 -173 c-62 -95 -115 -173 -118 -173 -3 0 -67 85 -142 189
          l-138 190 0 115 0 115 33 -20 c17 -11 61 -29 97 -41z m3320 0 l65 -20 86 0 87
          0 71 24 71 23 0 -114 0 -114 -112 -174 c-62 -95 -115 -173 -118 -173 -3 0 -67
          85 -142 188 l-138 189 0 116 0 116 33 -20 c17 -11 61 -29 97 -41z m-1732 -454
          l162 -245 0 -130 0 -130 20 -20 c11 -11 29 -20 40 -20 11 0 29 9 40 20 l20 20
          0 116 0 115 137 257 c75 141 137 258 138 259 4 7 386 -132 421 -152 88 -51
          156 -157 174 -272 l10 -58 0 -422 0 -423 -195 0 -195 0 0 273 0 273 -12 12
          c-7 7 -27 12 -44 12 l-33 0 -15 -22 -16 -22 0 -263 0 -263 -430 0 -430 0 0
          263 0 263 -16 22 -15 22 -33 0 c-17 0 -37 -5 -44 -12 l-12 -12 0 -273 0 -273
          -196 0 -195 0 3 468 3 467 23 57 c29 72 81 139 138 179 25 17 120 59 212 94
          92 35 169 63 172 64 3 0 78 -110 168 -244z m-1644 -24 l146 -199 0 -154 0
          -154 16 -22 15 -22 33 0 c17 0 37 5 44 12 l12 12 0 160 0 159 128 195 c70 107
          130 200 134 206 l7 11 113 -39 c124 -43 198 -77 216 -99 l12 -14 -27 -59 -28
          -59 -3 -382 -3 -383 -700 0 -701 0 4 358 3 357 28 61 28 61 49 48 49 48 133
          53 c73 29 136 50 140 48 4 -2 72 -94 152 -203z m3329 -12 l137 -187 0 -154 0
          -154 16 -22 15 -22 34 0 34 0 11 19 10 20 0 153 0 154 131 199 c72 110 133
          202 136 205 6 6 217 -67 276 -97 60 -30 117 -87 146 -145 12 -25 26 -72 31
          -104 6 -33 10 -200 10 -371 l0 -313 -700 0 -699 0 -3 378 -3 377 -32 67 -31
          66 24 23 c13 12 84 46 156 75 l133 53 16 -17 c9 -9 77 -101 152 -203z"></path>
        <path d="M2527 563 c-9 -2 -24 -18 -33 -34 l-15 -30 7 -22 c3 -12 13 -30 22
          -39 l15 -18 37 0 37 0 15 18 c9 9 19 27 22 39 l7 22 -15 29 c-19 36 -51 47
          -99 35z"></path>
    </g>
    <g transform="translate(0.000000,512.000000) scale(0.100000,-0.100000)" fill="#000000" stroke="none"></g>
    <g transform="translate(0.000000,512.000000) scale(0.100000,-0.100000)" fill="#000000" stroke="none"></g>
    <g transform="translate(0.000000,512.000000) scale(0.100000,-0.100000)" fill="#000000" stroke="none"></g>
    <g transform="translate(0.000000,512.000000) scale(0.100000,-0.100000)" fill="#000000" stroke="none"></g>
    <g transform="translate(0.000000,512.000000) scale(0.100000,-0.100000)" fill="#000000" stroke="none"></g>
    <g transform="translate(0.000000,512.000000) scale(0.100000,-0.100000)" fill="#000000" stroke="none"></g>
    <g transform="translate(0.000000,512.000000) scale(0.100000,-0.100000)" fill="#000000" stroke="none"></g>
    <g transform="translate(0.000000,512.000000) scale(0.100000,-0.100000)" fill="#ffffff" stroke="none"></g>
    <g transform="translate(0.000000,512.000000) scale(0.100000,-0.100000)" fill="#00ffff" stroke="none"></g>
    <g transform="translate(0.000000,512.000000) scale(0.100000,-0.100000)" fill="#ff00ff" stroke="none"></g>
    <g transform="translate(0.000000,512.000000) scale(0.100000,-0.100000)" fill="#0000ff" stroke="none"></g>
    <g transform="translate(0.000000,512.000000) scale(0.100000,-0.100000)" fill="#ffff00" stroke="none"></g>
    <g transform="translate(0.000000,512.000000) scale(0.100000,-0.100000)" fill="#00ff00" stroke="none"></g>
    <g transform="translate(0.000000,512.000000) scale(0.100000,-0.100000)" fill="#ff0000" stroke="none"></g>
    <g transform="translate(0.000000,512.000000) scale(0.100000,-0.100000)" fill="#c0c0c0" stroke="none"></g>
    <g transform="translate(0.000000,512.000000) scale(0.100000,-0.100000)" fill="#808080" stroke="none"></g>
    <g transform="translate(0.000000,512.000000) scale(0.100000,-0.100000)" fill="#008080" stroke="none"></g>
    <g transform="translate(0.000000,512.000000) scale(0.100000,-0.100000)" fill="#800080" stroke="none"></g>
    <g transform="translate(0.000000,512.000000) scale(0.100000,-0.100000)" fill="#000080" stroke="none"></g>
    <g transform="translate(0.000000,512.000000) scale(0.100000,-0.100000)" fill="#808000" stroke="none"></g>
    <g transform="translate(0.000000,512.000000) scale(0.100000,-0.100000)" fill="#008000" stroke="none"></g>
    <g transform="translate(0.000000,512.000000) scale(0.100000,-0.100000)" fill="#000000" stroke="none"></g>
    <g transform="translate(0.000000,512.000000) scale(0.100000,-0.100000)" fill="#000000" stroke="none"></g>
</svg>